<?xml version="1.0" standalone="no"?>
<!DOCTYPE svg PUBLIC "-//W3C//DTD SVG 20010904//EN"
 "http://www.w3.org/TR/2001/REC-SVG-20010904/DTD/svg10.dtd">
<svg version="1.0" xmlns="http://www.w3.org/2000/svg"
 width="700.000000pt" height="440.000000pt" viewBox="0 0 700.000000 440.000000"
 preserveAspectRatio="xMidYMid meet">

<g transform="translate(0.000000,440.000000) scale(0.100000,-0.100000)"
fill="#000000" stroke="none">
<path d="M1994 2371 l-31 -47 19 -24 20 -24 18 24 c33 44 45 71 34 78 -6 4
-15 15 -20 24 -8 14 -14 9 -40 -31z"/>
<path d="M2218 2368 c-25 -40 -26 -43 -11 -72 l15 -29 19 24 c38 50 43 67 29
94 -7 14 -16 25 -19 25 -3 0 -18 -19 -33 -42z"/>
<path d="M2443 2369 l-29 -42 103 -156 c56 -86 124 -187 150 -226 l49 -70 58
-3 c50 -3 58 -1 52 13 -8 22 -335 513 -346 520 -5 3 -22 -13 -37 -36z"/>
<path d="M2862 2287 c-13 -14 -22 -36 -22 -55 0 -26 7 -37 40 -58 22 -15 40
-33 40 -41 0 -20 -40 -32 -75 -22 -33 10 -51 -1 -42 -25 5 -12 21 -16 61 -16
47 0 57 4 75 26 37 47 29 73 -38 123 -17 12 -22 23 -17 36 5 14 15 17 51 13
33 -4 45 -2 50 10 8 21 -12 32 -61 32 -30 0 -46 -6 -62 -23z"/>
<path d="M3041 2245 c-25 -26 -30 -35 -17 -35 13 0 16 -5 10 -22 -18 -56 -22
-93 -13 -110 12 -22 61 -24 79 -3 10 13 9 15 -9 15 -28 0 -33 15 -23 70 6 39
11 45 35 48 31 4 38 32 7 32 -13 0 -20 7 -20 20 0 28 -10 25 -49 -15z"/>
<path d="M2102 2200 c-17 -28 -29 -50 -24 -50 4 0 21 -24 36 -54 16 -30 45
-75 65 -100 20 -24 49 -63 64 -85 27 -39 30 -41 83 -41 56 0 66 10 40 39 -8 9
-21 27 -28 41 -14 26 -61 99 -125 196 -21 31 -45 67 -53 80 -8 13 -17 24 -20
24 -3 0 -20 -23 -38 -50z"/>
<path d="M2330 2199 c-14 -22 -24 -44 -23 -48 3 -13 176 -266 187 -273 18 -13
106 -9 106 4 0 21 -227 358 -242 358 -2 0 -14 -18 -28 -41z"/>
<path d="M3185 2218 c-31 -138 -27 -158 30 -158 18 0 37 5 40 10 4 6 15 8 26
5 14 -5 20 0 24 22 4 15 10 36 16 45 12 23 12 91 0 83 -6 -3 -13 -26 -17 -52
-10 -71 -63 -115 -94 -78 -9 11 -9 26 -1 65 6 28 11 58 11 65 0 24 -29 17 -35
-7z"/>
</g>
</svg>
